<?xml version="1.0" encoding="UTF-8"?>
<svg width="39px" height="58px" viewBox="0 0 39 58" version="1.1" xmlns="http://www.w3.org/2000/svg" xmlns:xlink="http://www.w3.org/1999/xlink">
    <title>tail-1</title>
    <g id="New-Landing" stroke="none" stroke-width="1" fill="none" fill-rule="evenodd" stroke-linecap="round" stroke-linejoin="round">
        <g id="Landing/Home" transform="translate(-290.000000, -1326.000000)" stroke-width="2">
            <g id="Group-63" transform="translate(0.000000, 931.000000)">
                <g id="Group-42" transform="translate(286.000000, 381.000000)">
                    <g id="tail-1" transform="translate(5.000000, 15.000000)">
                        <g id="streamline-icon-road-sign-banned@140x140" transform="translate(9.859320, 0.000000)">
                            <path d="M0,8.89498792 C0,13.8075541 3.94176839,17.7899758 8.80418611,17.7899758 C13.6666038,17.7899758 17.6083722,13.8075541 17.6083722,8.89498792 C17.6083722,3.98242174 13.6666038,0 8.80418611,0 C3.94176839,0 0,3.98242174 0,8.89498792 Z" id="Path" stroke="#202020" fill="#FF6633"></path>
                            <line x1="3.41386808" y1="3.44907695" x2="15.0928905" y2="15.2485507" id="Path" stroke="#000000"></line>
                        </g>
                        <g id="streamline-icon-money-bag-dollar@140x140" transform="translate(0.000000, 23.175377)" stroke="#000000">
                            <path d="M21.6485447,10.5892713 L17.3868993,10.5892713 C16.039813,10.5902219 14.882458,11.5558453 14.6268318,12.8920962 C14.3712055,14.2283471 15.0890626,15.5601383 16.3387819,16.0681603 L20.6654105,17.817508 C21.9151299,18.32553 22.632987,19.6573212 22.3773607,20.9935721 C22.1217345,22.329823 20.9643795,23.2954464 19.6172931,23.2963969 L15.3598403,23.2963969" id="Path"></path>
                            <line x1="18.5041925" y1="10.5892713" x2="18.5041925" y2="9.00088064" id="Path"></line>
                            <line x1="18.5041925" y1="24.8847876" x2="18.5041925" y2="23.2963969" id="Path"></line>
                            <line x1="7.49895983" y1="1.05892713" x2="29.5094251" y2="1.05892713" id="Path"></line>
                            <path d="M8.3647048,5.82409924 L2.57909678,12.6012329 C-0.309111213,16.3942998 -0.813502467,21.5157494 1.27827248,25.809444 C3.37004743,30.1031385 7.69464387,32.8232561 12.4314003,32.8246233 L24.5685997,32.8246233 C29.3053561,32.8232561 33.6299526,30.1031385 35.7217275,25.809444 C37.8135025,21.5157494 37.3091112,16.3942998 34.4209032,12.6012329 L28.6352952,5.82409924" id="Path"></path>
                        </g>
                    </g>
                </g>
            </g>
        </g>
    </g>
</svg>