<?xml version="1.0" encoding="UTF-8"?>
<svg width="52px" height="52px" viewBox="0 0 52 52" version="1.1" xmlns="http://www.w3.org/2000/svg" xmlns:xlink="http://www.w3.org/1999/xlink">
    <title>tail-4</title>
    <g id="New-Landing" stroke="none" stroke-width="1" fill="none" fill-rule="evenodd" stroke-linecap="round" stroke-linejoin="round">
        <g id="Landing/Home" transform="translate(-791.000000, -1688.000000)" stroke="#000000" stroke-width="2">
            <g id="Group-63" transform="translate(0.000000, 931.000000)">
                <g id="Group-42" transform="translate(286.000000, 381.000000)">
                    <g id="tail-4" transform="translate(505.000000, 377.000000)">
                        <path d="M29.3804348,31.6666667 L47.673913,31.6666667 C49.5108601,31.6666667 51,30.1742825 51,28.3333333 L51,3.33333333 C51,1.49238417 49.5108601,0 47.673913,0 L11.0869565,0 C9.25000942,0 7.76086957,1.49238417 7.76086957,3.33333333 L7.76086957,25" id="Path"></path>
                        <line x1="7.76086957" y1="10" x2="51" y2="10" id="Path"></line>
                        <line x1="14.4130435" y1="20" x2="19.4021739" y2="20" id="Path"></line>
                        <path d="M36.8641304,18.3333333 C35.7903937,16.8985653 33.921019,16.3133444 32.2232922,16.8804863 C30.5255653,17.4476281 29.3804348,19.0398733 29.3804348,20.8333333 C29.3804348,22.6267934 30.5255653,24.2190385 32.2232922,24.7861804 C33.921019,25.3533223 35.7903937,24.7681014 36.8641304,23.3333333 C37.9378672,24.7681014 39.8072419,25.3533223 41.5049687,24.7861804 C43.2026955,24.2190385 44.3478261,22.6267934 44.3478261,20.8333333 C44.3478261,19.0398733 43.2026955,17.4476281 41.5049687,16.8804863 C39.8072419,16.3133444 37.9378672,16.8985653 36.8641304,18.3333333 L36.8641304,18.3333333 Z" id="Path"></path>
                        <path d="M1.10869565,46.6666667 L37.6956522,46.6666667 C37.6956522,42.9847683 34.7173725,40 31.0434783,40 L22.7282609,40 C22.7282609,36.3181017 19.7499812,33.3333333 16.076087,33.3333333 L1.10869565,33.3333333" id="Path" fill="#FF6633"></path>
                        <line x1="1.10869565" y1="30" x2="1.10869565" y2="50" id="Path"></line>
                        <line x1="14.4130435" y1="40" x2="22.7282609" y2="40" id="Path"></line>
                    </g>
                </g>
            </g>
        </g>
    </g>
</svg>