<?xml version="1.0" encoding="UTF-8"?>
<svg width="28px" height="28px" viewBox="0 0 28 28" version="1.1" xmlns="http://www.w3.org/2000/svg" xmlns:xlink="http://www.w3.org/1999/xlink">
    <title>email</title>
    <g id="Symbols" stroke="none" stroke-width="1" fill="none" fill-rule="evenodd">
        <g id="footer" transform="translate(-427.000000, -325.000000)">
            <g id="Group-32" transform="translate(427.000000, 285.000000)">
                <g id="email" transform="translate(0.000000, 40.000000)">
                    <circle id="Oval" fill="#FFFFFF" opacity="0.03" cx="14" cy="14" r="14"></circle>
                    <g id="Group-21" transform="translate(7.000000, 9.000000)" stroke="#FFFFFF" stroke-linecap="round" stroke-linejoin="round" stroke-width="0.5">
                        <path d="M14,1.83333333 L14,9.77777778 C14,10.4527925 13.4776655,11 12.8333333,11 L1.16666667,11 C0.522334459,11 0,10.4527925 0,9.77777778 L0,1.83333333" id="Path"></path>
                        <path d="M14,1.83333333 L14,1.22222222 C14,0.547207528 13.4776655,1.86094526e-14 12.8333333,1.86094526e-14 L1.16666667,1.86094526e-14 C0.522334459,1.86094526e-14 0,0.547207528 0,1.22222222 L0,1.83333333 L6.06666667,5.80922222 C6.63414056,6.18078354 7.35419277,6.18078354 7.92166667,5.80922222 L14,1.83333333 Z" id="Path"></path>
                    </g>
                </g>
            </g>
        </g>
    </g>
</svg>