<?xml version="1.0" encoding="UTF-8"?>
<svg width="48px" height="48px" viewBox="0 0 48 48" version="1.1" xmlns="http://www.w3.org/2000/svg" xmlns:xlink="http://www.w3.org/1999/xlink">
    <title>newsletter</title>
    <g id="New-Landing" stroke="none" stroke-width="1" fill="none" fill-rule="evenodd" stroke-linecap="round" stroke-linejoin="round">
        <g id="newsletter" transform="translate(1.000000, 1.000000)" stroke-width="2">
            <path d="M12,34.0000001 L2,34.0000001 C0.8954305,34.0000001 0,33.1045695 0,32.0000001 L0,16.0000001 C0,12.6862915 2.68629154,10.0000001 6,10.0000001 C9.31370846,10.0000001 12,12.6862915 12,16.0000001 L12,34.0000001 Z" id="Path" stroke="#000000"></path>
            <line x1="4" y1="30" x2="8" y2="30" id="Path" stroke="#FF6633"></line>
            <line x1="8" y1="10" x2="8" y2="4" id="Path" stroke="#FF6633"></line>
            <rect id="Rectangle" stroke="#FF6633" x="8" y="0" width="6" height="4"></rect>
            <path d="M6,10 L40,10 C43.3137085,10 46,12.6862915 46,16 L46,32 C46,33.1045695 45.1045695,34 44,34 L12,34" id="Path" stroke="#000000"></path>
            <line x1="26" y1="34" x2="26" y2="46" id="Path" stroke="#000000"></line>
        </g>
    </g>
</svg>